<?xml version="1.0" encoding="UTF-8" standalone="no"?>
<!-- Created with Inkscape (http://www.inkscape.org/) -->

<svg
   width="512"
   height="512"
   viewBox="0 0 135.46666 135.46667"
   version="1.1"
   id="svg1"
   inkscape:version="1.4.2 (f4327f4, 2025-05-13)"
   sodipodi:docname="favicon.svg"
   xmlns:inkscape="http://www.inkscape.org/namespaces/inkscape"
   xmlns:sodipodi="http://sodipodi.sourceforge.net/DTD/sodipodi-0.dtd"
   xmlns="http://www.w3.org/2000/svg"
   xmlns:svg="http://www.w3.org/2000/svg">
  <sodipodi:namedview
     id="namedview1"
     pagecolor="#ffffff"
     bordercolor="#000000"
     borderopacity="0.25"
     inkscape:showpageshadow="2"
     inkscape:pageopacity="0.0"
     inkscape:pagecheckerboard="0"
     inkscape:deskcolor="#d1d1d1"
     inkscape:document-units="mm"
     inkscape:zoom="0.60945551"
     inkscape:cx="306.83125"
     inkscape:cy="765.43733"
     inkscape:window-width="1665"
     inkscape:window-height="1211"
     inkscape:window-x="1902"
     inkscape:window-y="721"
     inkscape:window-maximized="0"
     inkscape:current-layer="layer1" />
  <defs
     id="defs1">
    <clipPath
       clipPathUnits="userSpaceOnUse"
       id="clipPath2">
      <path
         d="M 0,1993.532 H 2205.958 V 0 H 0 Z"
         transform="translate(-788.97879,-1481.026)"
         id="path2" />
    </clipPath>
    <clipPath
       clipPathUnits="userSpaceOnUse"
       id="clipPath4">
      <path
         d="M 0,1993.532 H 2205.958 V 0 H 0 Z"
         transform="translate(-986.57935,-1030.0377)"
         id="path4" />
    </clipPath>
    <clipPath
       clipPathUnits="userSpaceOnUse"
       id="clipPath6">
      <path
         d="M 0,1993.532 H 2205.958 V 0 H 0 Z"
         transform="translate(-1070.1981,-1328.3063)"
         id="path6" />
    </clipPath>
    <clipPath
       clipPathUnits="userSpaceOnUse"
       id="clipPath8">
      <path
         d="M 0,1993.532 H 2205.958 V 0 H 0 Z"
         transform="translate(-1447.4886,-1202.529)"
         id="path8" />
    </clipPath>
  </defs>
  <g
     inkscape:label="Layer 1"
     inkscape:groupmode="layer"
     id="layer1">
    <path
       id="path1"
       d="m 0,0 c 0,2.622 0.055,5.162 0.154,7.631 17.509,-6.369 32.84,-17.273 44.595,-31.287 15.278,-18.223 24.497,-41.76 24.497,-67.46 0,-11.017 -1.674,-21.593 -4.756,-31.455 -1.376,-4.361 -3.02,-8.598 -4.924,-12.695 C 43.167,-120.271 29.501,-102.325 19.4,-82.253 6.998,-57.592 0,-29.66 0,0 m 54.262,-173.873 13.761,-10.23 9.78,14.06 c 7.913,11.363 14.17,24.004 18.421,37.583 4.096,13.115 6.31,27.007 6.31,41.344 0,33.776 -12.137,64.753 -32.293,88.8 -20.484,24.422 -49.253,41.679 -81.97,47.43 l -16.861,2.96 -2.455,-17.019 c -0.742,-5.132 -1.307,-10.294 -1.667,-15.455 -0.382,-5.376 -0.58,-10.592 -0.58,-15.6 0,-34.891 8.304,-67.915 23.053,-97.208 15.248,-30.313 37.454,-56.563 64.501,-76.665"
       style="fill:#db881b;fill-opacity:1;fill-rule:nonzero;stroke:none"
       transform="matrix(0.162375,0,0,-0.1690767,16.256806,17.275292)"
       clip-path="url(#clipPath2)" />
    <path
       id="path3"
       d="m 0,0 c 34.165,-34.164 81.369,-55.3 133.518,-55.3 52.136,0 99.349,21.136 133.515,55.3 33.236,33.239 54.081,78.839 55.193,129.291 H -55.208 C -54.096,78.839 -33.251,33.239 0,0"
       style="fill:#db881b;fill-opacity:1;fill-rule:nonzero;stroke:none"
       transform="matrix(0.162375,0,0,-0.1690767,48.342196,93.526904)"
       clip-path="url(#clipPath4)"
       sodipodi:nodetypes="cscccc" />
    <path
       id="path5"
       d="m 0,0 c -28.59,-18.459 -62.679,-29.179 -99.327,-29.179 -8.991,0 -17.657,0.605 -25.991,1.782 l -1.599,0.238 c 5.102,6.345 10.547,12.388 16.302,18.138 41.073,41.077 97.822,66.5 160.516,66.5 2.211,0 4.389,-0.031 6.507,-0.085 C 42.07,34.342 22.766,14.719 0,0 m -210.401,-169.537 c 0,-1.704 0.096,-3.384 0.129,-5.08 1.342,-69.839 30.123,-132.98 76.115,-178.973 47.094,-47.109 112.173,-76.244 184.058,-76.244 71.864,0 136.943,29.135 184.052,76.244 45.978,45.993 74.764,109.134 76.106,178.973 0.033,1.696 0.129,3.376 0.129,5.08 0,4.87 -0.169,10.1 -0.495,15.698 -0.337,5.489 -0.797,10.691 -1.386,15.605 l -1.585,13.255 -0.172,1.444 c 0,0 -0.39,-0.546 -1.029,-1.444 -1.359,-1.911 -3.957,-5.577 -7.092,-10.083 -8.78,-12.615 -21.533,-31.457 -21.533,-34.475 0,-1.704 -0.091,-3.385 -0.129,-5.08 -1.337,-60.654 -26.397,-115.475 -66.352,-155.435 -41.076,-41.072 -97.836,-66.481 -160.514,-66.481 -62.694,0 -119.443,25.409 -160.516,66.481 -39.974,39.96 -65.034,94.781 -66.371,155.435 -0.038,1.695 -0.129,3.376 -0.129,5.08 0,15.253 1.509,30.151 4.377,44.558 4.828,24.25 13.514,47.104 25.393,67.898 5.765,-1.306 11.603,-2.385 17.479,-3.211 10.145,-1.446 20.345,-2.188 30.539,-2.188 43.195,0 83.46,12.679 117.282,34.525 34.905,22.541 62.906,54.849 80.133,93.019 l 7.196,15.936 1.965,4.351 -22.098,3.003 c -5.963,0.797 -11.828,1.402 -17.562,1.797 -6.133,0.407 -12.037,0.615 -17.688,0.615 -71.885,0 -136.964,-29.136 -184.058,-76.245 -37.148,-37.135 -63.045,-85.48 -72.367,-139.5 -2.501,-14.486 -3.877,-29.357 -3.877,-44.558"
       style="fill:#db881b;fill-opacity:1;fill-rule:nonzero;stroke:none"
       transform="matrix(0.162375,0,0,-0.1690767,61.919784,43.096634)"
       clip-path="url(#clipPath6)" />
    <path
       id="path7"
       d="m 0,0 h -36.364 c 2.079,-14.329 3.133,-28.961 3.133,-43.517 0,-1.779 -0.036,-3.55 -0.067,-5.323 -2.817,-161.949 -133.754,-292.821 -294.323,-292.821 -160.569,0 -291.504,130.872 -294.321,292.821 -0.032,1.773 -0.067,3.544 -0.067,5.323 0,14.547 1.053,29.18 3.131,43.517 h -36.363 c -1.846,-14.446 -2.782,-29.081 -2.782,-43.517 0,-1.777 0.037,-3.549 0.064,-5.323 1.339,-87.223 35.52,-169.038 96.631,-230.887 62.414,-63.164 145.413,-97.949 233.707,-97.949 88.294,0 171.291,34.785 233.706,97.949 23.797,24.081 43.709,51.421 59.186,81.258 l 0.659,1.286 c 23.309,45.421 35.958,96.601 36.774,148.343 0.028,1.775 0.079,3.548 0.079,5.323 C 2.783,-29.071 1.847,-14.437 0,0"
       style="fill:#db881b;fill-opacity:1;fill-rule:nonzero;stroke:none"
       transform="matrix(0.162375,0,0,-0.1690767,123.18233,64.362659)"
       clip-path="url(#clipPath8)" />
  </g>
</svg>
